<svg version="1.1" id="Layer_1" xmlns="http://www.w3.org/2000/svg" xmlns:xlink="http://www.w3.org/1999/xlink" x="0px" y="0px"
	 width="100%" viewBox="0 0 283 80" enable-background="new 0 0 283 80" xml:space="preserve">
<path fill="#FDFEFE" opacity="1.000000" stroke="none" 
	d="
M192.000000,81.000000 
	C128.000015,81.000000 64.500046,81.000000 1.000051,81.000000 
	C1.000034,54.333366 1.000034,27.666731 1.000017,1.000073 
	C95.333275,1.000048 189.666550,1.000048 283.999878,1.000024 
	C283.999908,27.666590 283.999908,54.333179 283.999939,80.999886 
	C253.500000,81.000000 223.000000,81.000000 192.000000,81.000000 
M81.824005,39.715977 
	C78.477074,38.256920 75.172729,36.687393 71.769150,35.375278 
	C69.243614,34.401661 67.674324,33.259491 67.614601,30.091002 
	C67.510979,24.593491 64.504997,20.850182 59.396267,18.668179 
	C54.201000,16.449215 49.226299,13.648835 43.912952,11.797937 
	C41.133118,10.829586 37.510822,10.441169 34.834782,11.388702 
	C28.911808,13.485908 23.300890,16.501701 17.650183,19.318356 
	C13.400661,21.436577 11.244361,25.192696 11.165567,29.815933 
	C10.998243,39.633762 10.937346,49.461308 11.191652,59.275566 
	C11.353305,65.514076 15.265755,68.994766 21.493479,69.009026 
	C40.136452,69.051712 58.779633,69.047829 77.422623,69.009399 
	C82.706612,68.998512 84.871292,66.822563 84.996582,61.378017 
	C85.111435,56.386986 85.271248,51.372761 84.904213,46.406223 
	C84.747047,44.279472 83.305176,42.247654 81.824005,39.715977 
M102.212341,21.936638 
	C100.464081,21.576542 98.715828,21.216448 96.005455,20.658182 
	C100.928818,32.501774 105.298492,43.268147 109.957558,53.907787 
	C110.558792,55.280781 112.666115,56.804821 114.062424,56.792107 
	C115.470879,56.779285 117.537636,55.238930 118.152702,53.851952 
	C122.262749,44.583744 126.075180,35.183140 129.947144,25.810196 
	C130.533936,24.389736 130.927795,22.889574 131.451355,21.303728 
	C126.168114,20.979792 126.159821,20.976318 124.406975,25.162329 
	C121.115753,33.022213 117.835144,40.886547 114.027138,50.000755 
	C109.865921,39.997997 106.251900,31.310575 102.212341,21.936638 
M165.596771,19.977526 
	C164.915619,21.005739 163.652817,22.028349 163.642838,23.063030 
	C163.537231,34.022148 163.627502,44.983204 163.690277,55.943577 
	C163.691803,56.209305 163.998810,56.473286 164.345078,57.030571 
	C165.589859,56.925713 166.971298,56.809345 167.732407,56.745232 
	C168.718735,52.883728 169.560333,49.588802 170.421677,46.216553 
	C176.326447,49.386311 175.727997,58.338833 184.620773,56.725170 
	C181.222580,51.767632 178.081284,47.184887 174.890671,42.530182 
	C177.874359,39.370907 180.653732,36.427956 183.630219,33.276287 
	C175.605515,30.657833 174.235672,39.159294 168.607117,41.238136 
	C168.607117,35.194912 168.743927,29.592459 168.509338,24.005608 
	C168.451859,22.636703 167.179794,21.318798 165.596771,19.977526 
M136.081894,37.813747 
	C130.860703,45.148167 135.419296,57.396027 146.069473,57.534389 
	C149.976562,57.585152 153.898529,56.490559 158.140045,55.870747 
	C158.140045,48.836739 158.140045,41.075382 158.140045,32.828800 
	C155.746658,33.172508 153.188354,34.387802 151.559204,33.623230 
	C145.371994,30.719542 140.672241,32.406548 136.081894,37.813747 
M270.657410,32.944431 
	C269.331238,33.056984 267.799591,33.656456 266.714142,33.198494 
	C261.801849,31.126013 257.492584,32.137691 253.906509,35.679405 
	C250.055435,39.482853 248.957687,44.191319 250.875183,49.402023 
	C252.659821,54.251678 256.913971,57.725185 261.701172,57.549232 
	C265.793427,57.398823 269.859467,56.534214 274.308350,55.935551 
	C274.308350,49.578487 274.416656,42.613590 274.184418,35.660069 
	C274.151855,34.686020 272.449036,33.767765 270.657410,32.944431 
M241.199966,38.719357 
	C242.821136,36.982204 244.442307,35.245052 246.312561,33.240982 
	C238.080170,31.043381 236.723175,39.325668 231.102783,41.671940 
	C231.102783,34.264706 231.102783,27.227373 231.102783,19.852270 
	C229.170105,20.068254 227.793076,20.222143 226.447205,20.372551 
	C226.447205,32.709568 226.447205,44.629543 226.447205,56.755249 
	C228.078766,56.755249 229.471664,56.755249 230.382446,56.755249 
	C231.319733,52.975193 232.170135,49.545506 233.050781,45.993896 
	C238.956070,49.205254 238.429855,58.304035 247.321915,56.720158 
	C243.991776,51.823402 240.935043,47.328655 237.750793,42.646400 
	C238.782669,41.457783 239.742401,40.352264 241.199966,38.719357 
M197.080948,32.334908 
	C195.702438,32.897160 194.193390,33.259209 192.968811,34.057571 
	C188.519104,36.958519 186.519974,41.244846 187.171356,46.435852 
	C187.818573,51.593643 190.608658,55.409374 195.761902,57.018795 
	C200.519455,58.504635 204.696701,57.249237 207.984909,53.602352 
	C211.682785,49.501122 212.319107,44.667904 210.178482,39.669022 
	C207.903183,34.355721 203.637970,31.935883 197.080948,32.334908 
M215.611298,41.523247 
	C215.611298,46.579235 215.611298,51.635227 215.611298,57.112339 
	C217.637863,56.875355 218.962204,56.720490 220.120361,56.585056 
	C220.120361,48.484501 220.120361,40.925068 220.120361,33.232796 
	C218.504532,33.232796 217.163437,33.232796 215.611099,33.232796 
	C215.611099,35.919567 215.611099,38.227707 215.611298,41.523247 
M219.084702,21.389669 
	C217.715790,22.150328 216.149673,22.718693 215.102325,23.792879 
	C214.801575,24.101313 215.730087,26.369064 216.584793,26.829802 
	C217.442703,27.292261 219.860901,26.814266 219.942703,26.412161 
	C220.240921,24.946638 219.848129,23.340508 219.084702,21.389669 
z"/>
<path fill="#77E4D4" opacity="1.000000" stroke="none" 
	d="
M82.135521,39.944336 
	C83.305176,42.247654 84.747047,44.279472 84.904213,46.406223 
	C85.271248,51.372761 85.111435,56.386986 84.996582,61.378017 
	C84.871292,66.822563 82.706612,68.998512 77.422623,69.009399 
	C58.779633,69.047829 40.136452,69.051712 21.493479,69.009026 
	C15.265755,68.994766 11.353305,65.514076 11.191652,59.275566 
	C10.937346,49.461308 10.998243,39.633762 11.165567,29.815933 
	C11.244361,25.192696 13.400661,21.436577 17.650183,19.318356 
	C23.300890,16.501701 28.911808,13.485908 34.834782,11.388702 
	C37.510822,10.441169 41.133118,10.829586 43.912952,11.797937 
	C49.226299,13.648835 54.201000,16.449215 59.396267,18.668179 
	C64.504997,20.850182 67.510979,24.593491 67.614601,30.091002 
	C67.674324,33.259491 69.243614,34.401661 71.769150,35.375278 
	C75.172729,36.687393 78.477074,38.256920 82.135521,39.944336 
M46.037292,16.379892 
	C42.588078,15.775411 38.792065,13.960272 35.764439,14.827546 
	C30.090796,16.452782 24.635668,19.257872 19.554707,22.339087 
	C17.386019,23.654230 15.187236,26.832903 15.062398,29.270290 
	C14.552776,39.220387 14.832027,49.211266 14.836518,59.187115 
	C14.838201,62.925880 16.802372,65.515289 20.404421,65.625961 
	C29.794977,65.914482 39.200275,65.723061 48.187134,65.723061 
	C48.187134,61.006020 48.187130,56.702343 48.187138,52.398663 
	C48.187157,41.075378 48.593414,40.648430 58.945084,36.136776 
	C60.899155,35.285118 63.237240,33.440498 63.764008,31.589111 
	C64.773788,28.040131 63.510654,24.630077 59.803486,22.841412 
	C55.469742,20.750429 51.079773,18.775976 46.037292,16.379892 
M74.375122,40.069183 
	C73.918701,39.871429 73.420380,39.736958 73.012085,39.466537 
	C65.644295,34.586632 59.857365,39.899769 53.794563,42.663952 
	C52.743645,43.143089 52.091808,45.447094 52.018982,46.945309 
	C51.793518,51.583893 52.028877,56.242813 51.906693,60.889145 
	C51.811176,64.521255 53.513733,66.014877 57.013969,65.986992 
	C63.489708,65.935402 69.969933,65.839241 76.440895,66.022583 
	C80.409531,66.135025 81.812073,64.132248 81.854500,60.596581 
	C81.894341,57.275936 81.572548,53.921646 81.937263,50.640785 
	C82.549469,45.133541 80.582474,41.649296 74.375122,40.069183 
z"/>
<path fill="#3B536D" opacity="1.000000" stroke="none" 
	d="
M102.425110,22.279896 
	C106.251900,31.310575 109.865921,39.997997 114.027138,50.000755 
	C117.835144,40.886547 121.115753,33.022213 124.406975,25.162329 
	C126.159821,20.976318 126.168114,20.979792 131.451355,21.303728 
	C130.927795,22.889574 130.533936,24.389736 129.947144,25.810196 
	C126.075180,35.183140 122.262749,44.583744 118.152702,53.851952 
	C117.537636,55.238930 115.470879,56.779285 114.062424,56.792107 
	C112.666115,56.804821 110.558792,55.280781 109.957558,53.907787 
	C105.298492,43.268147 100.928818,32.501774 96.005455,20.658182 
	C98.715828,21.216448 100.464081,21.576542 102.425110,22.279896 
z"/>
<path fill="#3F5871" opacity="1.000000" stroke="none" 
	d="
M166.031464,19.977486 
	C167.179794,21.318798 168.451859,22.636703 168.509338,24.005608 
	C168.743927,29.592459 168.607117,35.194912 168.607117,41.238136 
	C174.235672,39.159294 175.605515,30.657833 183.630219,33.276287 
	C180.653732,36.427956 177.874359,39.370907 174.890671,42.530182 
	C178.081284,47.184887 181.222580,51.767632 184.620773,56.725170 
	C175.727997,58.338833 176.326447,49.386311 170.421677,46.216553 
	C169.560333,49.588802 168.718735,52.883728 167.732407,56.745232 
	C166.971298,56.809345 165.589859,56.925713 164.345078,57.030571 
	C163.998810,56.473286 163.691803,56.209305 163.690277,55.943577 
	C163.627502,44.983204 163.537231,34.022148 163.642838,23.063030 
	C163.652817,22.028349 164.915619,21.005739 166.031464,19.977486 
z"/>
<path fill="#3A536D" opacity="1.000000" stroke="none" 
	d="
M136.294373,37.498394 
	C140.672241,32.406548 145.371994,30.719542 151.559204,33.623230 
	C153.188354,34.387802 155.746658,33.172508 158.140045,32.828800 
	C158.140045,41.075382 158.140045,48.836739 158.140045,55.870747 
	C153.898529,56.490559 149.976562,57.585152 146.069473,57.534389 
	C135.419296,57.396027 130.860703,45.148167 136.294373,37.498394 
M146.433411,36.701927 
	C141.701370,36.873611 139.633011,39.887497 139.145035,44.064835 
	C138.703079,47.848324 140.116150,51.503754 143.841400,52.469803 
	C146.029816,53.037315 149.549286,51.954285 151.206955,50.326992 
	C154.218048,47.371048 153.963211,43.251930 151.605484,39.783333 
	C150.683228,38.426556 148.726273,37.773098 146.433411,36.701927 
z"/>
<path fill="#3A536D" opacity="1.000000" stroke="none" 
	d="
M271.088379,32.884056 
	C272.449036,33.767765 274.151855,34.686020 274.184418,35.660069 
	C274.416656,42.613590 274.308350,49.578487 274.308350,55.935551 
	C269.859467,56.534214 265.793427,57.398823 261.701172,57.549232 
	C256.913971,57.725185 252.659821,54.251678 250.875183,49.402023 
	C248.957687,44.191319 250.055435,39.482853 253.906509,35.679405 
	C257.492584,32.137691 261.801849,31.126013 266.714142,33.198494 
	C267.799591,33.656456 269.331238,33.056984 271.088379,32.884056 
M268.997589,47.012405 
	C269.038879,46.016521 269.199524,45.008614 269.100616,44.026855 
	C268.687531,39.926239 266.753357,37.061329 262.355652,36.739643 
	C258.623718,36.466652 255.352264,39.818317 255.110275,44.133316 
	C254.885605,48.139660 256.309021,51.582264 260.344360,52.803871 
	C264.617462,54.097462 267.263672,51.629883 268.997589,47.012405 
z"/>
<path fill="#3D566F" opacity="1.000000" stroke="none" 
	d="
M240.951050,38.983055 
	C239.742401,40.352264 238.782669,41.457783 237.750793,42.646400 
	C240.935043,47.328655 243.991776,51.823402 247.321915,56.720158 
	C238.429855,58.304035 238.956070,49.205254 233.050781,45.993896 
	C232.170135,49.545506 231.319733,52.975193 230.382446,56.755249 
	C229.471664,56.755249 228.078766,56.755249 226.447205,56.755249 
	C226.447205,44.629543 226.447205,32.709568 226.447205,20.372551 
	C227.793076,20.222143 229.170105,20.068254 231.102783,19.852270 
	C231.102783,27.227373 231.102783,34.264706 231.102783,41.671940 
	C236.723175,39.325668 238.080170,31.043381 246.312561,33.240982 
	C244.442307,35.245052 242.821136,36.982204 240.951050,38.983055 
z"/>
<path fill="#3C556E" opacity="1.000000" stroke="none" 
	d="
M197.471680,32.266029 
	C203.637970,31.935883 207.903183,34.355721 210.178482,39.669022 
	C212.319107,44.667904 211.682785,49.501122 207.984909,53.602352 
	C204.696701,57.249237 200.519455,58.504635 195.761902,57.018795 
	C190.608658,55.409374 187.818573,51.593643 187.171356,46.435852 
	C186.519974,41.244846 188.519104,36.958519 192.968811,34.057571 
	C194.193390,33.259209 195.702438,32.897160 197.471680,32.266029 
M196.370010,52.483799 
	C200.828369,54.155899 204.029953,52.443893 205.581192,48.311127 
	C207.007706,44.510696 206.595139,40.611496 202.949203,38.001945 
	C199.983948,35.879574 196.961090,36.302635 194.391525,38.906750 
	C191.432495,41.905537 191.250259,46.569149 193.908707,50.350792 
	C194.374451,51.013332 195.098083,51.494598 196.370010,52.483799 
z"/>
<path fill="#314B66" opacity="1.000000" stroke="none" 
	d="
M215.611206,41.029545 
	C215.611099,38.227707 215.611099,35.919567 215.611099,33.232796 
	C217.163437,33.232796 218.504532,33.232796 220.120361,33.232796 
	C220.120361,40.925068 220.120361,48.484501 220.120361,56.585056 
	C218.962204,56.720490 217.637863,56.875355 215.611298,57.112339 
	C215.611298,51.635227 215.611298,46.579235 215.611206,41.029545 
z"/>
<path fill="#3E5670" opacity="1.000000" stroke="none" 
	d="
M219.400238,21.588520 
	C219.848129,23.340508 220.240921,24.946638 219.942703,26.412161 
	C219.860901,26.814266 217.442703,27.292261 216.584793,26.829802 
	C215.730087,26.369064 214.801575,24.101313 215.102325,23.792879 
	C216.149673,22.718693 217.715790,22.150328 219.400238,21.588520 
z"/>
<path fill="#FEFFFF" opacity="1.000000" stroke="none" 
	d="
M46.375748,16.565430 
	C51.079773,18.775976 55.469742,20.750429 59.803486,22.841412 
	C63.510654,24.630077 64.773788,28.040131 63.764008,31.589111 
	C63.237240,33.440498 60.899155,35.285118 58.945084,36.136776 
	C48.593414,40.648430 48.187157,41.075378 48.187138,52.398663 
	C48.187130,56.702343 48.187134,61.006020 48.187134,65.723061 
	C39.200275,65.723061 29.794977,65.914482 20.404421,65.625961 
	C16.802372,65.515289 14.838201,62.925880 14.836518,59.187115 
	C14.832027,49.211266 14.552776,39.220387 15.062398,29.270290 
	C15.187236,26.832903 17.386019,23.654230 19.554707,22.339087 
	C24.635668,19.257872 30.090796,16.452782 35.764439,14.827546 
	C38.792065,13.960272 42.588078,15.775411 46.375748,16.565430 
z"/>
<path fill="#FDFFFE" opacity="1.000000" stroke="none" 
	d="
M74.733688,40.210793 
	C80.582474,41.649296 82.549469,45.133541 81.937263,50.640785 
	C81.572548,53.921646 81.894341,57.275936 81.854500,60.596581 
	C81.812073,64.132248 80.409531,66.135025 76.440895,66.022583 
	C69.969933,65.839241 63.489708,65.935402 57.013969,65.986992 
	C53.513733,66.014877 51.811176,64.521255 51.906693,60.889145 
	C52.028877,56.242813 51.793518,51.583893 52.018982,46.945309 
	C52.091808,45.447094 52.743645,43.143089 53.794563,42.663952 
	C59.857365,39.899769 65.644295,34.586632 73.012085,39.466537 
	C73.420380,39.736958 73.918701,39.871429 74.733688,40.210793 
z"/>
<path fill="#FAFAFB" opacity="1.000000" stroke="none" 
	d="
M146.836990,36.750618 
	C148.726273,37.773098 150.683228,38.426556 151.605484,39.783333 
	C153.963211,43.251930 154.218048,47.371048 151.206955,50.326992 
	C149.549286,51.954285 146.029816,53.037315 143.841400,52.469803 
	C140.116150,51.503754 138.703079,47.848324 139.145035,44.064835 
	C139.633011,39.887497 141.701370,36.873611 146.836990,36.750618 
z"/>
<path fill="#FAFAFB" opacity="1.000000" stroke="none" 
	d="
M268.919556,47.414452 
	C267.263672,51.629883 264.617462,54.097462 260.344360,52.803871 
	C256.309021,51.582264 254.885605,48.139660 255.110275,44.133316 
	C255.352264,39.818317 258.623718,36.466652 262.355652,36.739643 
	C266.753357,37.061329 268.687531,39.926239 269.100616,44.026855 
	C269.199524,45.008614 269.038879,46.016521 268.919556,47.414452 
z"/>
<path fill="#FAFAFB" opacity="1.000000" stroke="none" 
	d="
M196.036316,52.271690 
	C195.098083,51.494598 194.374451,51.013332 193.908707,50.350792 
	C191.250259,46.569149 191.432495,41.905537 194.391525,38.906750 
	C196.961090,36.302635 199.983948,35.879574 202.949203,38.001945 
	C206.595139,40.611496 207.007706,44.510696 205.581192,48.311127 
	C204.029953,52.443893 200.828369,54.155899 196.036316,52.271690 
z"/>
</svg>