<svg version="1.1" id="Layer_1" xmlns="http://www.w3.org/2000/svg" xmlns:xlink="http://www.w3.org/1999/xlink" x="0px" y="0px"
	 width="100%" viewBox="0 0 92 75" enable-background="new 0 0 92 75" xml:space="preserve">
<path fill="#FEFFFF" opacity="1.000000" stroke="none" 
	d="
M62.000000,76.000000 
	C41.333332,76.000000 21.166666,76.000000 1.000000,76.000000 
	C1.000000,51.000000 1.000000,26.000000 1.000000,1.000000 
	C31.666666,1.000000 62.333332,1.000000 93.000000,1.000000 
	C93.000000,26.000000 93.000000,51.000000 93.000000,76.000000 
	C82.833336,76.000000 72.666664,76.000000 62.000000,76.000000 
M49.500000,68.028481 
	C56.664326,68.028374 63.828655,68.028198 70.992981,68.028168 
	C84.006241,68.028122 84.170135,68.004150 83.991043,54.875908 
	C83.782372,39.578800 87.081787,40.759834 70.226120,33.868065 
	C68.724648,33.254154 67.101265,30.983690 66.958954,29.357899 
	C66.486000,23.955009 63.906166,20.258821 59.195438,18.011332 
	C53.494308,15.291321 47.801826,12.480345 41.879501,10.332042 
	C39.451874,9.451430 36.156921,9.458395 33.738754,10.357938 
	C28.144938,12.438798 22.886120,15.402338 17.414711,17.835354 
	C12.357188,20.084324 10.226565,24.161228 10.145327,29.345575 
	C9.996546,38.840130 10.006922,48.340073 10.139319,57.835140 
	C10.229904,64.331604 14.031596,67.974472 20.509186,68.013420 
	C29.839149,68.069527 39.169701,68.028145 49.500000,68.028481 
z"/>
<path fill="#77E4D4" opacity="1.000000" stroke="none" 
	d="
M49.000000,68.028427 
	C39.169701,68.028145 29.839149,68.069527 20.509186,68.013420 
	C14.031596,67.974472 10.229904,64.331604 10.139319,57.835140 
	C10.006922,48.340073 9.996546,38.840130 10.145327,29.345575 
	C10.226565,24.161228 12.357188,20.084324 17.414711,17.835354 
	C22.886120,15.402338 28.144938,12.438798 33.738754,10.357938 
	C36.156921,9.458395 39.451874,9.451430 41.879501,10.332042 
	C47.801826,12.480345 53.494308,15.291321 59.195438,18.011332 
	C63.906166,20.258821 66.486000,23.955009 66.958954,29.357899 
	C67.101265,30.983690 68.724648,33.254154 70.226120,33.868065 
	C87.081787,40.759834 83.782372,39.578800 83.991043,54.875908 
	C84.170135,68.004150 84.006241,68.028122 70.992981,68.028168 
	C63.828655,68.028198 56.664326,68.028374 49.000000,68.028427 
M13.813931,45.495659 
	C13.815811,49.486595 13.898058,53.479534 13.798819,57.467957 
	C13.680155,62.237053 16.196486,64.748779 20.661764,64.859810 
	C29.603437,65.082130 38.554527,64.925812 47.185955,64.925812 
	C47.185955,60.163349 47.604767,55.800694 47.098083,51.548317 
	C46.068165,42.904625 49.342106,37.576252 57.796230,35.161705 
	C60.053635,34.516979 63.080875,34.214272 63.066444,30.296890 
	C63.051369,26.204855 61.902462,23.142178 58.077438,21.400919 
	C52.336807,18.787622 46.652740,16.024616 40.788048,13.724504 
	C38.986031,13.017756 36.435516,13.019208 34.636921,13.730711 
	C29.397255,15.803461 24.360582,18.390932 19.251978,20.792875 
	C15.561008,22.528278 13.783467,25.450970 13.810284,29.532059 
	C13.843060,34.520481 13.815195,39.509304 13.813931,45.495659 
M58.459759,38.902683 
	C50.934505,41.932407 50.934292,41.932407 50.934032,50.083897 
	C50.933933,53.239330 51.055901,56.400570 50.904564,59.548702 
	C50.721729,63.352123 52.359230,65.050598 56.173676,64.997543 
	C62.649364,64.907455 69.129646,64.867126 75.603142,65.016258 
	C78.949478,65.093361 80.693642,63.595997 80.790161,60.428890 
	C80.941833,55.451813 80.930428,50.463375 80.760681,45.487503 
	C80.719566,44.282486 80.063858,42.846527 79.222069,41.963654 
	C75.246986,37.794575 64.584213,36.125553 58.459759,38.902683 
z"/>
<path fill="#FEFFFF" opacity="1.000000" stroke="none" 
	d="
M13.813742,44.996803 
	C13.815195,39.509304 13.843060,34.520481 13.810284,29.532059 
	C13.783467,25.450970 15.561008,22.528278 19.251978,20.792875 
	C24.360582,18.390932 29.397255,15.803461 34.636921,13.730711 
	C36.435516,13.019208 38.986031,13.017756 40.788048,13.724504 
	C46.652740,16.024616 52.336807,18.787622 58.077438,21.400919 
	C61.902462,23.142178 63.051369,26.204855 63.066444,30.296890 
	C63.080875,34.214272 60.053635,34.516979 57.796230,35.161705 
	C49.342106,37.576252 46.068165,42.904625 47.098083,51.548317 
	C47.604767,55.800694 47.185955,60.163349 47.185955,64.925812 
	C38.554527,64.925812 29.603437,65.082130 20.661764,64.859810 
	C16.196486,64.748779 13.680155,62.237053 13.798819,57.467957 
	C13.898058,53.479534 13.815811,49.486595 13.813742,44.996803 
z"/>
<path fill="#FDFFFE" opacity="1.000000" stroke="none" 
	d="
M58.818928,38.777527 
	C64.584213,36.125553 75.246986,37.794575 79.222069,41.963654 
	C80.063858,42.846527 80.719566,44.282486 80.760681,45.487503 
	C80.930428,50.463375 80.941833,55.451813 80.790161,60.428890 
	C80.693642,63.595997 78.949478,65.093361 75.603142,65.016258 
	C69.129646,64.867126 62.649364,64.907455 56.173676,64.997543 
	C52.359230,65.050598 50.721729,63.352123 50.904564,59.548702 
	C51.055901,56.400570 50.933933,53.239330 50.934032,50.083897 
	C50.934292,41.932407 50.934505,41.932407 58.818928,38.777527 
z"/>
</svg>